<svg width="151" height="48" viewBox="0 0 151 48" fill="none" xmlns="http://www.w3.org/2000/svg">
<mask id="mask0_3_61" style="mask-type:luminance" maskUnits="userSpaceOnUse" x="0" y="0" width="151" height="48">
<path d="M150.375 0H0.375V48H150.375V0Z" fill="white"/>
</mask>
<g mask="url(#mask0_3_61)">
<path d="M32.3504 13.7759C29.9356 12.6461 27.3536 11.825 24.6542 11.3574C24.3227 11.9568 23.9354 12.763 23.6684 13.4043C20.7988 12.9727 17.9557 12.9727 15.1389 13.4043C14.8719 12.763 14.4758 11.9568 14.1413 11.3574C11.439 11.825 8.85401 12.6491 6.43923 13.7819C1.56859 21.142 0.248238 28.3194 0.908414 35.3949C4.13888 37.8073 7.26959 39.2728 10.3475 40.2317C11.1074 39.1858 11.7852 38.074 12.3691 36.9023C11.257 36.4797 10.192 35.9583 9.18558 35.3529C9.45257 35.1551 9.71372 34.9483 9.96603 34.7355C16.1042 37.6065 22.7735 37.6065 28.8383 34.7355C29.0936 34.9483 29.3547 35.1551 29.6187 35.3529C28.6094 35.9612 27.5414 36.4827 26.4294 36.9053C27.0133 38.074 27.6881 39.1889 28.451 40.2347C31.5318 39.2757 34.6654 37.8103 37.8959 35.3949C38.6705 27.1926 36.5726 20.0812 32.3504 13.7759ZM13.2053 31.0435C11.3627 31.0435 9.85159 29.3233 9.85159 27.2286C9.85159 25.1338 11.3304 23.4106 13.2053 23.4106C15.0802 23.4106 16.5913 25.1308 16.559 27.2286C16.5619 29.3233 15.0802 31.0435 13.2053 31.0435ZM25.599 31.0435C23.7564 31.0435 22.2453 29.3233 22.2453 27.2286C22.2453 25.1338 23.7241 23.4106 25.599 23.4106C27.4739 23.4106 28.985 25.1308 28.9527 27.2286C28.9527 29.3233 27.4739 31.0435 25.599 31.0435Z" fill="#333333"/>
<path d="M50.8794 18.7242H58.8893C60.8202 18.7242 62.4515 19.0329 63.7898 19.6473C65.1244 20.2616 66.1252 21.1187 66.7884 22.2155C67.4512 23.3123 67.7856 24.568 67.7856 25.9825C67.7856 27.367 67.4394 28.6227 66.747 29.7465C66.0546 30.8733 65.0012 31.7634 63.5842 32.4197C62.1672 33.0759 60.4122 33.4056 58.3145 33.4056H50.8794V18.7242ZM58.2322 29.6746C59.5321 29.6746 60.5329 29.3419 61.2309 28.6796C61.9294 28.0143 62.2787 27.1093 62.2787 25.9615C62.2787 24.8976 61.9672 24.0495 61.3454 23.4142C60.7236 22.7789 59.7817 22.4583 58.5227 22.4583H56.017V29.6746H58.2322Z" fill="#333333"/>
<path d="M79.7775 33.3878C78.6683 33.0941 77.6676 32.6686 76.7788 32.1082V28.6259C77.4507 29.1563 78.3513 29.5939 79.4809 29.9385C80.6105 30.2801 81.7023 30.4509 82.7582 30.4509C83.2512 30.4509 83.624 30.385 83.8761 30.2531C84.1287 30.1213 84.255 29.9625 84.255 29.7796C84.255 29.5699 84.1875 29.3961 84.0494 29.2552C83.9114 29.1144 83.6444 28.9975 83.2486 28.8986L80.7838 28.3322C79.3725 27.9966 78.3717 27.532 77.7765 26.9357C77.1807 26.3423 76.8841 25.5631 76.8841 24.5982C76.8841 23.786 77.1424 23.0818 77.665 22.4794C78.184 21.8771 78.9235 21.4125 79.8828 21.0859C80.8426 20.7562 81.9631 20.5914 83.2512 20.5914C84.4013 20.5914 85.4547 20.7173 86.4145 20.969C87.3738 21.2208 88.166 21.5414 88.797 21.934V25.2275C88.1511 24.8349 87.4117 24.5263 86.5669 24.2925C85.7247 24.0617 84.8594 23.9478 83.9671 23.9478C82.679 23.9478 82.0367 24.1726 82.0367 24.6191C82.0367 24.8289 82.1364 24.9847 82.3358 25.0896C82.5353 25.1945 82.9019 25.3024 83.4332 25.4163L85.4869 25.7939C86.8282 26.0307 87.8285 26.4472 88.4856 27.0406C89.1432 27.6339 89.4715 28.512 89.4715 29.6748C89.4715 30.9484 88.9289 31.9583 87.8402 32.7075C86.7515 33.4567 85.2082 33.8313 83.2072 33.8313C82.0306 33.8284 80.8866 33.6815 79.7775 33.3878Z" fill="#333333"/>
<path d="M94.319 32.947C93.1428 32.3596 92.2535 31.5625 91.6609 30.5555C91.0682 29.5486 90.769 28.4158 90.769 27.1571C90.769 25.8985 91.0769 24.7717 91.6931 23.7797C92.3093 22.7878 93.2129 22.0086 94.4044 21.4422C95.5953 20.8758 97.0185 20.5941 98.6763 20.5941C100.73 20.5941 102.435 21.0347 103.791 21.9157V25.7546C103.312 25.419 102.754 25.1463 102.118 24.9365C101.481 24.7267 100.801 24.6218 100.073 24.6218C98.7996 24.6218 97.805 24.8586 97.086 25.3351C96.367 25.8116 96.0065 26.4319 96.0065 27.2021C96.0065 27.9573 96.3552 28.5746 97.0538 29.0601C97.7523 29.5426 98.7643 29.7853 100.093 29.7853C100.777 29.7853 101.452 29.6834 102.118 29.4827C102.781 29.2789 103.353 29.0302 103.831 28.7364V32.4495C102.326 33.3725 100.581 33.834 98.594 33.834C96.9218 33.828 95.4956 33.5343 94.319 32.947Z" fill="#333333"/>
<path d="M108.913 32.9472C107.728 32.3599 106.824 31.5567 106.202 30.5348C105.58 29.5129 105.266 28.3741 105.266 27.1154C105.266 25.8568 105.577 24.733 106.202 23.7471C106.827 22.7611 107.725 21.9879 108.905 21.4275C110.081 20.8671 111.486 20.5884 113.115 20.5884C114.743 20.5884 116.149 20.8671 117.325 21.4275C118.502 21.9879 119.4 22.7551 120.016 23.735C120.632 24.715 120.94 25.8388 120.94 27.1125C120.94 28.3711 120.632 29.5099 120.016 30.5318C119.4 31.5537 118.499 32.3569 117.313 32.9442C116.128 33.5316 114.728 33.8253 113.112 33.8253C111.495 33.8253 110.095 33.5346 108.913 32.9472ZM115.154 29.2252C115.653 28.7158 115.905 28.0415 115.905 27.2024C115.905 26.3633 115.656 25.695 115.154 25.2005C114.655 24.703 113.974 24.4543 113.112 24.4543C112.235 24.4543 111.548 24.703 111.046 25.2005C110.548 25.698 110.298 26.3633 110.298 27.2024C110.298 28.0415 110.548 28.7158 111.046 29.2252C111.545 29.7347 112.235 29.9924 113.112 29.9924C113.974 29.9894 114.655 29.7347 115.154 29.2252Z" fill="#333333"/>
<path d="M133.282 21.3676V25.8988C132.76 25.5481 132.085 25.3743 131.249 25.3743C130.154 25.3743 129.309 25.713 128.722 26.3902C128.133 27.0675 127.839 28.1224 127.839 29.5489V33.4088H122.807V21.1368H127.737V25.0387C128.009 23.6122 128.453 22.5603 129.063 21.88C129.67 21.2028 130.456 20.8641 131.413 20.8641C132.138 20.8641 132.76 21.032 133.282 21.3676Z" fill="#333333"/>
<path d="M150 18.3048V33.4087H144.968V30.6607C144.542 31.6946 143.897 32.4828 143.028 33.0221C142.16 33.5586 141.086 33.8283 139.812 33.8283C138.674 33.8283 137.683 33.5466 136.834 32.9802C135.986 32.4138 135.332 31.6377 134.872 30.6517C134.414 29.6657 134.182 28.5509 134.182 27.3043C134.167 26.0186 134.411 24.8648 134.912 23.8429C135.412 22.821 136.118 22.0239 137.028 21.4515C137.938 20.8791 138.976 20.5914 140.141 20.5914C142.539 20.5914 144.146 21.6552 144.968 23.78V18.3048H150ZM144.217 29.1413C144.73 28.6318 144.985 27.9696 144.985 27.1604C144.985 26.3782 144.736 25.7399 144.237 25.2514C143.738 24.763 143.055 24.5172 142.195 24.5172C141.347 24.5172 140.669 24.7659 140.162 25.2634C139.654 25.7609 139.402 26.4052 139.402 27.2024C139.402 27.9995 139.654 28.6498 140.162 29.1533C140.669 29.6567 141.338 29.9085 142.174 29.9085C143.022 29.9055 143.703 29.6507 144.217 29.1413Z" fill="#333333"/>
<path d="M72.0259 22.4433C73.4112 22.4433 74.5346 21.4128 74.5346 20.1417C74.5346 18.8706 73.4112 17.8402 72.0259 17.8402C70.6401 17.8402 69.5171 18.8706 69.5171 20.1417C69.5171 21.4128 70.6401 22.4433 72.0259 22.4433Z" fill="#333333"/>
<path d="M69.5151 24.0284C71.0523 24.7057 72.9597 24.7357 74.5322 24.0284V33.4744H69.5151V24.0284Z" fill="#333333"/>
</g>
</svg>
