<svg width="98" height="36" viewBox="0 0 98 36" fill="none" xmlns="http://www.w3.org/2000/svg">
<mask id="mask0_3_43" style="mask-type:luminance" maskUnits="userSpaceOnUse" x="0" y="0" width="98" height="36">
<path d="M97.375 0H0.375V36H97.375V0Z" fill="white"/>
</mask>
<g mask="url(#mask0_3_43)">
<path d="M2.5791 3.3446V29.1665L5.90931 29.1793V16.8832H13.9146V13.6298H5.8965V6.58515H16.3354V3.3446H2.5791ZM22.3042 8.59608C22.8817 8.59608 23.4355 8.36667 23.8438 7.95832C24.2522 7.54997 24.4816 6.99613 24.4816 6.41864C24.4816 5.84115 24.2522 5.28731 23.8438 4.87896C23.4355 4.47061 22.8817 4.2412 22.3042 4.2412C21.7267 4.2412 21.1728 4.47061 20.7645 4.87896C20.3561 5.28731 20.1267 5.84115 20.1267 6.41864C20.1267 6.99613 20.3561 7.54997 20.7645 7.95832C21.1728 8.36667 21.7267 8.59608 22.3042 8.59608ZM20.6263 11.8366V29.1793H23.9565V11.8366H20.6263Z" fill="black"/>
<path fill-rule="evenodd" clip-rule="evenodd" d="M36.2648 11.337C31.8587 11.337 28.7847 15.0643 28.7847 19.496C28.7847 23.9278 31.8587 27.655 36.2648 27.655C38.2886 27.655 39.9537 26.8865 41.1705 25.6057V27.9112C41.1789 28.6001 41.0508 29.2838 40.7934 29.9229C40.536 30.5619 40.1545 31.1436 39.6709 31.6343C39.1874 32.125 38.6113 32.515 37.9761 32.7818C37.3409 33.0485 36.6592 33.1867 35.9702 33.1883C34.9071 33.1883 33.8568 32.7784 33.0243 32.1892L31.3592 35.0712C32.6467 35.9034 34.135 36.3727 35.667 36.4296C37.1991 36.4865 38.7181 36.1288 40.0638 35.3943C41.4095 34.6598 42.532 33.5757 43.3129 32.2564C44.0938 30.9371 44.5042 29.4315 44.5007 27.8984V11.8494H41.1705V13.3992C39.9537 12.1184 38.2886 11.3498 36.2648 11.3498V11.337ZM32.1021 19.496C32.1021 16.7422 34.2027 14.5776 36.6363 14.5776C39.0699 14.5776 41.1577 16.755 41.1577 19.496C41.1577 22.2499 39.0571 24.4017 36.6363 24.4017C34.2027 24.4017 32.1021 22.2499 32.1021 19.496Z" fill="black"/>
<path d="M56.4637 14.5777C55.5113 14.5945 54.6037 14.9856 53.9374 15.6663C53.271 16.347 52.8994 17.2627 52.903 18.2153V29.1793H49.5728V11.8367H52.903V13.4249C53.4012 12.7646 54.0484 12.2313 54.7918 11.8684C55.5353 11.5056 56.3539 11.3236 57.181 11.3371C59.5121 11.3371 61.3053 12.4899 62.33 14.2575C62.9016 13.3714 63.6841 12.6408 64.6072 12.1312C65.5304 11.6215 66.5655 11.3487 67.6199 11.3371C71.3984 11.3371 73.768 14.3855 73.768 18.1641V29.1793H70.4634V18.2025C70.4669 17.2499 70.0953 16.3342 69.4289 15.6535C68.7626 14.9728 67.8551 14.5817 66.9026 14.5649C65.9502 14.5817 65.0427 14.9728 64.3763 15.6535C63.71 16.3342 63.3384 17.2499 63.3419 18.2025V29.1665H60.0117V18.2025C60.0152 17.2521 59.6454 16.3383 58.9818 15.6579C58.3182 14.9775 57.4139 14.585 56.4637 14.5649V14.5777Z" fill="black"/>
<path fill-rule="evenodd" clip-rule="evenodd" d="M91.4824 13.809C90.7261 13.0205 89.817 12.3945 88.8105 11.9695C87.804 11.5444 86.7214 11.3292 85.6289 11.337C80.6848 11.337 77.1753 15.5126 77.1753 20.5079C77.1753 25.5032 80.6848 29.6787 85.6289 29.6787C86.7211 29.6843 87.803 29.468 88.8092 29.0431C89.8154 28.6182 90.7248 27.9934 91.4824 27.2067V29.1792H94.7998V11.8365H91.4696V13.809H91.4824ZM80.4927 20.5079C80.4927 17.2033 83.0288 14.5775 85.9875 14.5775C88.9335 14.5775 91.4824 17.2033 91.4824 20.5079C91.4824 23.8125 88.9463 26.4254 85.9875 26.4254C83.0416 26.4254 80.4927 23.8125 80.4927 20.5079Z" fill="black"/>
</g>
</svg>
