<svg width="138" height="26" viewBox="0 0 138 26" fill="none" xmlns="http://www.w3.org/2000/svg">
<g clip-path="url(#clip0_3_74)">
<mask id="mask0_3_74" style="mask-type:luminance" maskUnits="userSpaceOnUse" x="0" y="0" width="138" height="26">
<path d="M138 0H0V26H138V0Z" fill="white"/>
</mask>
<g mask="url(#mask0_3_74)">
<path d="M96.5614 5.38659C94.4389 5.38659 92.9231 6.10541 92.179 7.46506L91.7792 8.19765V5.74141H88.3215V20.7067H91.9583V11.804C91.9583 9.67659 93.1237 8.45612 95.1582 8.45612C97.097 8.45612 98.2084 9.64294 98.2084 11.7153V20.7067H101.845V11.0714C101.845 7.514 99.8694 5.38659 96.5614 5.38659ZM78.9301 5.38659C74.6404 5.38659 71.9745 8.03706 71.9745 12.3072V14.4086C71.9745 18.512 74.6635 21.0631 78.9903 21.0631C81.8831 21.0631 83.9114 20.0108 85.188 17.8513L82.9327 16.5681C81.9896 17.8146 80.4845 18.5854 78.9903 18.5854C76.7999 18.5854 75.4909 17.2456 75.4909 15.0005V14.4055H85.6464V11.9218C85.6464 7.94529 83.0099 5.38659 78.9301 5.38659ZM82.3384 11.9845H75.4909V11.6266C75.4909 9.16118 76.7119 7.80306 78.9301 7.80306C81.0649 7.80306 82.3384 9.14282 82.3384 11.388V11.9845ZM137.946 3.27753V0.414471H125.373V3.27753H129.782V17.8452H125.373V20.7067H137.946V17.8452H133.537V3.27753H137.946ZM42.604 0C36.9868 0 33.4966 3.46871 33.4966 9.05106V12.0701C33.4966 17.654 36.9852 21.1212 42.604 21.1212C48.2228 21.1212 51.7114 17.654 51.7114 12.0701V9.05106C51.7099 3.46871 48.2197 0 42.604 0ZM47.9542 12.2766C47.9542 15.9839 46.0046 18.1113 42.604 18.1113C39.2034 18.1113 37.2523 15.9839 37.2523 12.2766V8.84459C37.2523 5.13729 39.2019 3.00988 42.6025 3.00988C46.0031 3.00988 47.9527 5.13729 47.9527 8.84459L47.9542 12.2766ZM63.1296 5.39424C61.2217 5.39424 59.5684 6.17576 58.7086 7.488L58.3166 8.08447V5.74141H54.8604V25.8562H58.4956V18.5716L58.8862 19.1436C59.7043 20.3442 61.3019 21.0631 63.1589 21.0631C66.294 21.0631 69.4569 19.032 69.4569 14.4973V11.9493C69.4569 8.684 67.5073 5.38659 63.128 5.38659L63.1296 5.39424ZM65.8217 14.326C65.8217 16.7379 64.4015 18.2367 62.117 18.2367C59.9868 18.2367 58.4987 16.6538 58.4987 14.3856V12.1374C58.4987 9.83412 59.9991 8.22671 62.1463 8.22671C64.4154 8.22671 65.8248 9.72553 65.8248 12.1374L65.8217 14.326ZM111.894 0.422118L104.554 20.7067H108.244L109.648 16.3571H118.084L118.098 16.3999L119.487 20.7067H123.181L115.835 0.414471L111.894 0.422118ZM110.556 13.5016L113.865 3.23165L117.143 13.4894L110.556 13.5016ZM24.0509 10.5808C24.3427 9.71017 24.4436 8.78789 24.3469 7.87555C24.2502 6.96321 23.9582 6.08181 23.4902 5.29024C22.0667 2.83538 19.2058 1.57254 16.4118 2.1658C15.6381 1.31316 14.6517 0.677226 13.5514 0.321867C12.4512 -0.0334931 11.276 -0.0957672 10.1438 0.141299C9.0116 0.378365 7.96229 0.906424 7.10125 1.67244C6.24022 2.43846 5.59777 3.41547 5.23844 4.50534C4.33122 4.68969 3.47416 5.06376 2.72455 5.60257C1.97493 6.14138 1.35003 6.83251 0.89159 7.62978C-0.547376 10.0807 -0.220745 13.1724 1.69921 15.275C1.40636 16.1452 1.30443 17.0674 1.40027 17.9797C1.4961 18.8921 1.78748 19.7737 2.25492 20.5655C3.67999 23.0213 6.5428 24.284 9.33846 23.69C9.95312 24.3757 10.7084 24.9237 11.5538 25.2972C12.3992 25.6707 13.3153 25.8613 14.241 25.8561C17.1047 25.8587 19.6421 24.0269 20.5168 21.325C21.4239 21.1404 22.2808 20.7662 23.0304 20.2274C23.7799 19.6886 24.4049 18.9977 24.8636 18.2006C26.2853 15.754 25.9573 12.679 24.0509 10.5808ZM14.2408 24.1639C13.0977 24.1658 11.9905 23.7688 11.1132 23.0427L11.2675 22.956L16.4632 19.9845C16.5925 19.9094 16.6999 19.8022 16.7747 19.6735C16.8496 19.5448 16.8894 19.3991 16.8902 19.2506V11.9926L19.0867 13.2516C19.0976 13.257 19.107 13.265 19.1141 13.2747C19.1213 13.2844 19.126 13.2957 19.128 13.3076V19.322C19.1223 21.9939 16.9376 24.1582 14.2408 24.1639ZM3.73633 19.7195C3.16308 18.7387 2.95723 17.5891 3.15501 16.4728L3.30937 16.5646L8.51015 19.5359C8.63884 19.6108 8.78535 19.6502 8.93457 19.6502C9.08378 19.6502 9.2303 19.6108 9.35899 19.5359L15.7121 15.9071V18.4199C15.7115 18.4329 15.7079 18.4456 15.7017 18.457C15.6955 18.4685 15.6867 18.4784 15.6761 18.486L10.4136 21.4933C8.075 22.828 5.08731 22.0344 3.73633 19.7195ZM2.36791 8.50659C2.94516 7.51948 3.85631 6.76657 4.94005 6.38116V12.4973C4.93809 12.6451 4.97621 12.7907 5.05041 12.9189C5.12462 13.0471 5.2322 13.1532 5.36193 13.2262L11.6841 16.8399L9.48757 18.0989C9.47569 18.1052 9.46243 18.1084 9.44898 18.1084C9.43552 18.1084 9.42227 18.1052 9.41039 18.0989L4.15821 15.0967C1.82425 13.7564 1.02388 10.7984 2.36791 8.48105V8.50659ZM20.414 12.6605L14.0712 9.01114L16.2625 7.75733C16.2744 7.75108 16.2877 7.74781 16.3011 7.74781C16.3146 7.74781 16.3278 7.75108 16.3397 7.75733L21.5921 10.7645C22.3951 11.2236 23.0497 11.8996 23.4795 12.7135C23.9093 13.5275 24.0966 14.4457 24.0194 15.3612C23.9423 16.2766 23.604 17.1514 23.0439 17.8834C22.4838 18.6154 21.7251 19.1745 20.8564 19.4954V13.379C20.8518 13.2315 20.8087 13.0877 20.7311 12.9617C20.6535 12.8357 20.5443 12.732 20.414 12.6605ZM22.6002 9.40359L22.4458 9.31182L17.2554 6.31494C17.1259 6.23967 16.9785 6.19998 16.8284 6.19998C16.6783 6.19998 16.5309 6.23967 16.4015 6.31494L10.0535 9.94362V7.4308C10.0522 7.41806 10.0543 7.4052 10.0598 7.39357C10.0652 7.38195 10.0737 7.37199 10.0843 7.36473L15.3365 4.36249C16.1415 3.90302 17.0619 3.68014 17.9901 3.71993C18.9182 3.75972 19.8157 4.06052 20.5777 4.58716C21.3396 5.11381 21.9344 5.84451 22.2926 6.69382C22.6508 7.54312 22.7575 8.47592 22.6002 9.38309V9.40359ZM8.85484 13.8582L6.65826 12.6043C6.64729 12.5978 6.6379 12.5889 6.63078 12.5783C6.62366 12.5677 6.61897 12.5557 6.61705 12.5432V6.54405C6.61828 5.62377 6.8839 4.72286 7.38285 3.94664C7.8818 3.17042 8.59347 2.55098 9.43464 2.16072C10.2758 1.77046 11.2117 1.62553 12.133 1.74286C13.0542 1.86019 13.9227 2.23494 14.6369 2.82329L14.4826 2.91001L9.2869 5.88151C9.1576 5.95665 9.05025 6.06383 8.97539 6.19251C8.90054 6.32119 8.86075 6.46695 8.85993 6.61547L8.85484 13.8582ZM10.0484 11.3097L12.8777 9.69402L15.7121 11.3097V14.541L12.8879 16.1569L10.0536 14.541L10.0484 11.3097Z" fill="black"/>
</g>
</g>
<defs>
<clipPath id="clip0_3_74">
<rect width="138" height="26" fill="white"/>
</clipPath>
</defs>
</svg>
