<svg width="113" height="24" viewBox="0 0 113 24" fill="none" xmlns="http://www.w3.org/2000/svg">
<g clip-path="url(#clip0_3_90)">
<mask id="mask0_3_90" style="mask-type:luminance" maskUnits="userSpaceOnUse" x="0" y="0" width="113" height="24">
<path d="M112.94 0H0.94043V24H112.94V0Z" fill="white"/>
</mask>
<g mask="url(#mask0_3_90)">
<path d="M0.94043 2.19906C0.94043 0.984555 1.92498 0 3.1395 0H11.7413C12.9558 0 13.9404 0.984555 13.9404 2.19907V3.90047C13.9404 4.50772 13.4481 5 12.8409 5H2.03996C1.43271 5 0.94043 4.50772 0.94043 3.90047V2.19906Z" fill="black"/>
<path d="M0.94043 9.09953C0.94043 8.49228 1.43271 8 2.03996 8H22.7413C23.9558 8 24.9404 8.98456 24.9404 10.1991V15.9005C24.9404 16.5077 24.4481 17 23.8409 17H3.1395C1.92499 17 0.94043 16.0154 0.94043 14.8009V9.09953Z" fill="black"/>
<path d="M11.9404 21.0995C11.9404 20.4923 12.4327 20 13.0399 20H23.8409C24.4481 20 24.9404 20.4923 24.9404 21.0995V21.8009C24.9404 23.0154 23.9558 24 22.7413 24H14.1395C12.925 24 11.9404 23.0154 11.9404 21.8009V21.0995Z" fill="black"/>
<path d="M38.536 14.741H40.8475L45.1403 21.7581H50.3963L45.6357 14.2456C48.2774 13.3375 49.8184 11.3012 49.8184 8.35672C49.8184 4.22898 46.929 2 42.2784 2H33.9404V21.7581H38.536V14.741ZM38.536 10.9985V5.88008H42.0308C44.2047 5.88008 45.3054 6.8157 45.3054 8.43928C45.3054 10.0353 44.2047 10.9985 42.0308 10.9985H38.536Z" fill="black"/>
<path d="M58.3035 22.0608C61.1929 22.0608 63.8347 20.6024 64.9079 17.823L61.2205 16.6397C60.8077 17.9056 59.7345 18.566 58.3586 18.566C56.6799 18.566 55.4967 17.4378 55.194 15.4564H65.018V14.3007C65.018 10.2004 62.6239 6.95325 58.221 6.95325C54.0382 6.95325 50.9561 10.2004 50.9561 14.4933C50.9561 19.0063 53.9281 22.0608 58.3035 22.0608ZM58.1659 10.3656C59.7895 10.3656 60.6426 11.4663 60.6701 12.7596H55.3316C55.7718 11.1636 56.8175 10.3656 58.1659 10.3656Z" fill="black"/>
<path d="M67.5137 17.878C67.5137 20.85 69.0822 21.8957 72.2193 21.8957C73.265 21.8957 74.0905 21.8132 74.861 21.7031V18.0982C74.3657 18.1532 74.118 18.1807 73.5952 18.1807C72.4945 18.1807 71.8615 17.9606 71.8615 16.7498V10.8884H74.6959V7.25595H71.8615V3.23828H67.5137V7.25595H65.6699V10.8884H67.5137V17.878Z" fill="black"/>
<path d="M90.6121 14.5208C90.6121 10.0078 87.6127 6.95325 83.3473 6.95325C79.0545 6.95325 76.0825 10.0078 76.0825 14.5208C76.0825 19.0338 79.0545 22.0608 83.3473 22.0608C87.6127 22.0608 90.6121 19.0338 90.6121 14.5208ZM80.4579 14.5208C80.4579 11.9891 81.5862 10.5582 83.3473 10.5582C85.1085 10.5582 86.2367 11.9891 86.2367 14.5208C86.2367 17.0525 85.1085 18.4834 83.3473 18.4834C81.5862 18.4834 80.4579 17.0525 80.4579 14.5208Z" fill="black"/>
<path d="M106.467 14.5208C106.467 10.0078 103.468 6.95325 99.2029 6.95325C94.91 6.95325 91.938 10.0078 91.938 14.5208C91.938 19.0338 94.91 22.0608 99.2029 22.0608C103.468 22.0608 106.467 19.0338 106.467 14.5208ZM96.3135 14.5208C96.3135 11.9891 97.4417 10.5582 99.2029 10.5582C100.964 10.5582 102.092 11.9891 102.092 14.5208C102.092 17.0525 100.964 18.4834 99.2029 18.4834C97.4417 18.4834 96.3135 17.0525 96.3135 14.5208Z" fill="black"/>
<path d="M112.941 2H108.538V21.7581H112.941V2Z" fill="black"/>
</g>
</g>
<defs>
<clipPath id="clip0_3_90">
<rect width="113" height="24" fill="white"/>
</clipPath>
</defs>
</svg>
