<svg width="105" height="28" viewBox="0 0 105 28" fill="none" xmlns="http://www.w3.org/2000/svg">
<g clip-path="url(#clip0_3_80)">
<mask id="mask0_3_80" style="mask-type:luminance" maskUnits="userSpaceOnUse" x="0" y="0" width="105" height="28">
<path d="M105 0.5H0V27.5H105V0.5Z" fill="white"/>
</mask>
<g mask="url(#mask0_3_80)">
<path d="M33.6294 21.6535L34.9366 18.5921C36.3493 19.6551 38.2258 20.2079 40.0812 20.2079C41.4517 20.2079 42.3161 19.6764 42.3161 18.8685C42.2951 16.615 34.1143 18.3795 34.0511 12.7244C34.03 9.85433 36.5601 7.6433 40.1445 7.6433C42.274 7.6433 44.4035 8.1748 45.9216 9.38661L44.6987 12.5118C43.3071 11.6189 41.5782 10.9811 39.9336 10.9811C38.8161 10.9811 38.0782 11.5126 38.0782 12.1929C38.0993 14.4039 46.3432 13.1921 46.4276 18.5921C46.4276 21.526 43.9607 23.5882 40.4186 23.5882C37.8252 23.5882 35.4426 22.9717 33.6294 21.6535ZM83.789 17.4866C83.1354 18.6346 81.9125 19.4213 80.4999 19.4213C78.4125 19.4213 76.7258 17.7205 76.7258 15.6157C76.7258 13.511 78.4125 11.8102 80.4999 11.8102C81.9125 11.8102 83.1354 12.5968 83.789 13.7449L87.3945 11.7252C86.0451 9.30157 83.4517 7.6433 80.4999 7.6433C76.1354 7.6433 72.5932 11.215 72.5932 15.6157C72.5932 20.0165 76.1354 23.5882 80.4999 23.5882C83.4728 23.5882 86.0451 21.9512 87.3945 19.5063L83.789 17.4866ZM48.2408 1.03149H52.7529V23.2905H48.2408V1.03149ZM89.1655 1.03149V23.2905H93.6776V16.615L99.033 23.2905H104.81L97.9999 15.3606L104.304 7.9622H98.78L93.6776 14.1063V1.03149H89.1655ZM66.1625 17.5291C65.5089 18.6134 64.1595 19.4213 62.6414 19.4213C60.5541 19.4213 58.8673 17.7205 58.8673 15.6157C58.8673 13.511 60.5541 11.8102 62.6414 11.8102C64.1595 11.8102 65.5089 12.6606 66.1625 13.7661V17.5291ZM66.1625 7.9622V9.76929C65.4246 8.51496 63.5902 7.6433 61.6716 7.6433C57.7077 7.6433 54.5872 11.1724 54.5872 15.5945C54.5872 20.0165 57.7077 23.5882 61.6716 23.5882C63.5902 23.5882 65.4246 22.7165 66.1625 21.4622V23.2693H70.6746V7.9622H66.1625Z" fill="black"/>
<path d="M5.73472 17.5078C5.73472 19.0598 4.49075 20.3141 2.95159 20.3141C1.41243 20.3141 0.168457 19.0598 0.168457 17.5078C0.168457 15.9559 1.41243 14.7015 2.95159 14.7015H5.73472V17.5078ZM7.12629 17.5078C7.12629 15.9559 8.37026 14.7015 9.90942 14.7015C11.4486 14.7015 12.6926 15.9559 12.6926 17.5078V24.5236C12.6926 26.0756 11.4486 27.3299 9.90942 27.3299C8.37026 27.3299 7.12629 26.0756 7.12629 24.5236V17.5078Z" fill="black"/>
<path d="M9.90951 6.24016C8.37035 6.24016 7.12638 4.98583 7.12638 3.43386C7.12638 1.88189 8.37035 0.627563 9.90951 0.627563C11.4487 0.627563 12.6926 1.88189 12.6926 3.43386V6.24016H9.90951ZM9.90951 7.66457C11.4487 7.66457 12.6926 8.9189 12.6926 10.4709C12.6926 12.0228 11.4487 13.2772 9.90951 13.2772H2.93059C1.39144 13.2772 0.147461 12.0228 0.147461 10.4709C0.147461 8.9189 1.39144 7.66457 2.93059 7.66457H9.90951Z" fill="black"/>
<path d="M21.0633 10.4709C21.0633 8.9189 22.3073 7.66457 23.8464 7.66457C25.3856 7.66457 26.6296 8.9189 26.6296 10.4709C26.6296 12.0228 25.3856 13.2772 23.8464 13.2772H21.0633V10.4709ZM19.6717 10.4709C19.6717 12.0228 18.4278 13.2772 16.8886 13.2772C15.3494 13.2772 14.1055 12.0228 14.1055 10.4709V3.43386C14.1055 1.88189 15.3494 0.627563 16.8886 0.627563C18.4278 0.627563 19.6717 1.88189 19.6717 3.43386V10.4709Z" fill="black"/>
<path d="M16.8886 21.7173C18.4278 21.7173 19.6717 22.9716 19.6717 24.5236C19.6717 26.0756 18.4278 27.3299 16.8886 27.3299C15.3494 27.3299 14.1055 26.0756 14.1055 24.5236V21.7173H16.8886ZM16.8886 20.3141C15.3494 20.3141 14.1055 19.0598 14.1055 17.5078C14.1055 15.9559 15.3494 14.7015 16.8886 14.7015H23.8675C25.4067 14.7015 26.6507 15.9559 26.6507 17.5078C26.6507 19.0598 25.4067 20.3141 23.8675 20.3141H16.8886Z" fill="black"/>
</g>
</g>
<defs>
<clipPath id="clip0_3_80">
<rect width="105" height="27" fill="white" transform="translate(0 0.5)"/>
</clipPath>
</defs>
</svg>
