<svg width="82" height="38" viewBox="0 0 82 38" fill="none" xmlns="http://www.w3.org/2000/svg">
<path fill-rule="evenodd" clip-rule="evenodd" d="M81.3849 21.0655C81.3849 15.2782 78.5816 10.7115 73.2237 10.7115C67.8433 10.7115 64.5879 15.2782 64.5879 21.0203C64.5879 27.825 68.4311 31.2613 73.9472 31.2613C76.6374 31.2613 78.672 30.6509 80.2093 29.7918V25.2704C78.672 26.0391 76.9087 26.5138 74.6706 26.5138C72.4777 26.5138 70.5335 25.7452 70.2848 23.0776H81.3396C81.3396 22.7837 81.3849 21.6081 81.3849 21.0655ZM70.217 18.9179C70.217 16.3633 71.7769 15.3008 73.2011 15.3008C74.5802 15.3008 76.0496 16.3633 76.0496 18.9179H70.217Z" fill="#333333"/>
<path fill-rule="evenodd" clip-rule="evenodd" d="M55.8624 10.7115C53.647 10.7115 52.2227 11.7515 51.4315 12.4749L51.1376 11.0733H46.1641V37.433L51.8158 36.2348L51.8384 29.837C52.6523 30.4248 53.8504 31.2613 55.8398 31.2613C59.8865 31.2613 63.5714 28.0059 63.5714 20.8395C63.5488 14.2834 59.8187 10.7115 55.8624 10.7115ZM54.506 26.2877C53.1722 26.2877 52.381 25.813 51.8384 25.2252L51.8158 16.838C52.4036 16.1824 53.2174 15.7303 54.506 15.7303C56.5633 15.7303 57.9875 18.0362 57.9875 20.9977C57.9875 24.027 56.5859 26.2877 54.506 26.2877Z" fill="#333333"/>
<path fill-rule="evenodd" clip-rule="evenodd" d="M38.3848 9.37701L44.0591 8.15623V3.56702L38.3848 4.76519V9.37701Z" fill="#333333"/>
<path d="M44.0591 11.0944H38.3848V30.8755H44.0591V11.0944Z" fill="#333333"/>
<path fill-rule="evenodd" clip-rule="evenodd" d="M32.3054 12.7685L31.9437 11.0956H27.0605V30.8767H32.7123V17.4708C34.0461 15.73 36.3068 16.0465 37.0076 16.2952V11.0956C36.2842 10.8243 33.6392 10.327 32.3054 12.7685Z" fill="#333333"/>
<path fill-rule="evenodd" clip-rule="evenodd" d="M21.0035 6.19006L15.4875 7.36563L15.4648 25.4738C15.4648 28.8196 17.9742 31.2838 21.32 31.2838C23.1738 31.2838 24.5302 30.9447 25.2763 30.5378V25.9485C24.5528 26.2424 20.9809 27.2824 20.9809 23.9365V15.9111H25.2763V11.0958H20.9809L21.0035 6.19006Z" fill="#333333"/>
<path fill-rule="evenodd" clip-rule="evenodd" d="M5.71956 16.838C5.71956 15.9564 6.44298 15.6173 7.64115 15.6173C9.35928 15.6173 11.5295 16.1372 13.2477 17.0641V11.7515C11.3713 11.0054 9.51753 10.7115 7.64115 10.7115C3.05194 10.7115 0 13.1079 0 17.1093C0 23.3488 8.59064 22.3541 8.59064 25.0444C8.59064 26.0843 7.68637 26.4234 6.42038 26.4234C4.544 26.4234 2.14766 25.6548 0.248676 24.6148V29.9953C2.35112 30.8996 4.47618 31.2839 6.42038 31.2839C11.1226 31.2839 14.3554 28.9554 14.3554 24.9087C14.3328 18.1718 5.71956 19.37 5.71956 16.838Z" fill="#333333"/>
</svg>
